{
    "asset" : {
        "generator" : "Khronos glTF Blender I/O v1.7.33",
        "version" : "2.0"
    },
    "scene" : 0,
    "scenes" : [
        {
            "name" : "Scene",
            "nodes" : [
                0
            ]
        }
    ],
    "nodes" : [
        {
            "mesh" : 0,
            "name" : "Layer_0",
            "rotation" : [
                0.48182833194732666,
                -0.506806492805481,
                0.5013183951377869,
                0.5095767974853516
            ],
            "scale" : [
                0.0007702616858296096,
                0.0007702611619606614,
                0.0007702613365836442
            ],
            "translation" : [
                0.0897124707698822,
                0.012629270553588867,
                -0.17498227953910828
            ]
        }
    ],
    "materials" : [
        {
            "doubleSided" : true,
            "name" : "Layer_0_Front_Bevel_Material.006",
            "pbrMetallicRoughness" : {
                "baseColorTexture" : {
                    "index" : 0
                },
                "metallicFactor" : 0,
                "roughnessFactor" : 0.5
            }
        },
        {
            "doubleSided" : true,
            "name" : "Layer_0_Back_Inflation_Material.007",
            "pbrMetallicRoughness" : {
                "baseColorTexture" : {
                    "index" : 1
                },
                "metallicFactor" : 0,
                "roughnessFactor" : 0.5
            }
        }
    ],
    "meshes" : [
        {
            "name" : "Layer_0.007",
            "primitives" : [
                {
                    "attributes" : {
                        "POSITION" : 0,
                        "NORMAL" : 1,
                        "TEXCOORD_0" : 2
                    },
                    "indices" : 3,
                    "material" : 0
                },
                {
                    "attributes" : {
                        "POSITION" : 4,
                        "NORMAL" : 5,
                        "TEXCOORD_0" : 6
                    },
                    "indices" : 7,
                    "material" : 1
                }
            ]
        }
    ],
    "textures" : [
        {
            "sampler" : 0,
            "source" : 0
        },
        {
            "sampler" : 0,
            "source" : 0
        }
    ],
    "images" : [
        {
            "bufferView" : 4,
            "mimeType" : "image/png",
            "name" : "Layer_0"
        }
    ],
    "accessors" : [
        {
            "bufferView" : 0,
            "componentType" : 5126,
            "count" : 1743,
            "max" : [
                473.9980163574219,
                0,
                -12.003199577331543
            ],
            "min" : [
                7.008299827575684,
                0,
                -510.9850158691406
            ],
            "type" : "VEC3"
        },
        {
            "bufferView" : 1,
            "componentType" : 5126,
            "count" : 1743,
            "type" : "VEC3"
        },
        {
            "bufferView" : 2,
            "componentType" : 5126,
            "count" : 1743,
            "type" : "VEC2"
        },
        {
            "bufferView" : 3,
            "componentType" : 5123,
            "count" : 5217,
            "type" : "SCALAR"
        },
        {
            "bufferView" : 5,
            "componentType" : 5126,
            "count" : 1734,
            "max" : [
                473.9980163574219,
                0,
                -12.003199577331543
            ],
            "min" : [
                7.008299827575684,
                0,
                -510.9850158691406
            ],
            "type" : "VEC3"
        },
        {
            "bufferView" : 6,
            "componentType" : 5126,
            "count" : 1734,
            "type" : "VEC3"
        },
        {
            "bufferView" : 7,
            "componentType" : 5126,
            "count" : 1734,
            "type" : "VEC2"
        },
        {
            "bufferView" : 8,
            "componentType" : 5123,
            "count" : 5217,
            "type" : "SCALAR"
        }
    ],
    "bufferViews" : [
        {
            "buffer" : 0,
            "byteLength" : 20916,
            "byteOffset" : 0
        },
        {
            "buffer" : 0,
            "byteLength" : 20916,
            "byteOffset" : 20916
        },
        {
            "buffer" : 0,
            "byteLength" : 13944,
            "byteOffset" : 41832
        },
        {
            "buffer" : 0,
            "byteLength" : 10434,
            "byteOffset" : 55776
        },
        {
            "buffer" : 0,
            "byteLength" : 195662,
            "byteOffset" : 66212
        },
        {
            "buffer" : 0,
            "byteLength" : 20808,
            "byteOffset" : 261876
        },
        {
            "buffer" : 0,
            "byteLength" : 20808,
            "byteOffset" : 282684
        },
        {
            "buffer" : 0,
            "byteLength" : 13872,
            "byteOffset" : 303492
        },
        {
            "buffer" : 0,
            "byteLength" : 10434,
            "byteOffset" : 317364
        }
    ],
    "samplers" : [
        {
            "magFilter" : 9729,
            "minFilter" : 9987
        }
    ],
    "buffers" : [
        {
            "byteLength" : 327800,
            "uri" : "data:application/octet-stream;base64,"
        }
    ]
}
