{
    "asset" : {
        "generator" : "Khronos glTF Blender I/O v1.7.33",
        "version" : "2.0"
    },
    "extensionsUsed" : [
        "KHR_texture_transform"
    ],
    "extensionsRequired" : [
        "KHR_texture_transform"
    ],
    "scene" : 0,
    "scenes" : [
        {
            "name" : "Scene",
            "nodes" : [
                0
            ]
        }
    ],
    "nodes" : [
        {
            "mesh" : 0,
            "name" : "ekstasi",
            "rotation" : [
                0.4464457631111145,
                -0.5483485460281372,
                0.5483486652374268,
                0.4464457035064697
            ],
            "scale" : [
                0.013010873459279537,
                0.013010873459279537,
                0.013010873459279537
            ],
            "translation" : [
                -1.5214130878448486,
                0,
                -5.154361724853516
            ]
        }
    ],
    "materials" : [
        {
            "doubleSided" : true,
            "name" : "Layer 0 Front Inflation Material",
            "pbrMetallicRoughness" : {
                "baseColorTexture" : {
                    "extensions" : {
                        "KHR_texture_transform" : {
                            "offset" : [
                                0.0013781037414446473,
                                -5.980605072508638e-06
                            ],
                            "scale" : [
                                0.998625858035171,
                                1.0000119806771348
                            ]
                        }
                    },
                    "index" : 0
                },
                "metallicFactor" : 0,
                "roughnessFactor" : 0.9179236888885498
            }
        },
        {
            "doubleSided" : true,
            "name" : "Layer 0 Extrusion Material",
            "pbrMetallicRoughness" : {
                "baseColorTexture" : {
                    "index" : 1
                },
                "metallicFactor" : 0,
                "roughnessFactor" : 0.9179236888885498
            }
        },
        {
            "doubleSided" : true,
            "name" : "Layer 0 Back Inflation Material",
            "pbrMetallicRoughness" : {
                "baseColorTexture" : {
                    "extensions" : {
                        "KHR_texture_transform" : {
                            "offset" : [
                                0.0013781037414446473,
                                -5.980605072508638e-06
                            ],
                            "scale" : [
                                0.998625858035171,
                                1.0000119806771348
                            ]
                        }
                    },
                    "index" : 2
                },
                "metallicFactor" : 0,
                "roughnessFactor" : 0.9179236888885498
            }
        }
    ],
    "meshes" : [
        {
            "name" : "ekstasi",
            "primitives" : [
                {
                    "attributes" : {
                        "POSITION" : 0,
                        "NORMAL" : 1,
                        "TEXCOORD_0" : 2
                    },
                    "indices" : 3,
                    "material" : 0
                },
                {
                    "attributes" : {
                        "POSITION" : 4,
                        "NORMAL" : 5,
                        "TEXCOORD_0" : 6
                    },
                    "indices" : 7,
                    "material" : 1
                },
                {
                    "attributes" : {
                        "POSITION" : 8,
                        "NORMAL" : 9,
                        "TEXCOORD_0" : 10
                    },
                    "indices" : 11,
                    "material" : 2
                }
            ]
        }
    ],
    "textures" : [
        {
            "sampler" : 0,
            "source" : 0
        },
        {
            "sampler" : 0,
            "source" : 1
        },
        {
            "sampler" : 0,
            "source" : 0
        }
    ],
    "images" : [
        {
            "bufferView" : 4,
            "mimeType" : "image/png",
            "name" : "Layer 0"
        },
        {
            "bufferView" : 9,
            "mimeType" : "image/png",
            "name" : "Layer 0 Extrusion Material - Default Texture"
        }
    ],
    "accessors" : [
        {
            "bufferView" : 0,
            "componentType" : 5126,
            "count" : 1628,
            "max" : [
                602.5997314453125,
                -114.67594146728516,
                2.0684170722961426
            ],
            "min" : [
                30.62290382385254,
                -256.60101318359375,
                -426.1904602050781
            ],
            "type" : "VEC3"
        },
        {
            "bufferView" : 1,
            "componentType" : 5126,
            "count" : 1628,
            "type" : "VEC3"
        },
        {
            "bufferView" : 2,
            "componentType" : 5126,
            "count" : 1628,
            "type" : "VEC2"
        },
        {
            "bufferView" : 3,
            "componentType" : 5123,
            "count" : 7362,
            "type" : "SCALAR"
        },
        {
            "bufferView" : 5,
            "componentType" : 5126,
            "count" : 1802,
            "max" : [
                602.5997314453125,
                -114.67594146728516,
                2.0684170722961426
            ],
            "min" : [
                25.57423973083496,
                -278.9996032714844,
                -427.537109375
            ],
            "type" : "VEC3"
        },
        {
            "bufferView" : 6,
            "componentType" : 5126,
            "count" : 1802,
            "type" : "VEC3"
        },
        {
            "bufferView" : 7,
            "componentType" : 5126,
            "count" : 1802,
            "type" : "VEC2"
        },
        {
            "bufferView" : 8,
            "componentType" : 5123,
            "count" : 4860,
            "type" : "SCALAR"
        },
        {
            "bufferView" : 10,
            "componentType" : 5126,
            "count" : 1628,
            "max" : [
                597.5510864257812,
                -137.0745391845703,
                0.7217450141906738
            ],
            "min" : [
                25.57423973083496,
                -278.9996032714844,
                -427.537109375
            ],
            "type" : "VEC3"
        },
        {
            "bufferView" : 11,
            "componentType" : 5126,
            "count" : 1628,
            "type" : "VEC3"
        },
        {
            "bufferView" : 12,
            "componentType" : 5126,
            "count" : 1628,
            "type" : "VEC2"
        },
        {
            "bufferView" : 13,
            "componentType" : 5123,
            "count" : 7362,
            "type" : "SCALAR"
        }
    ],
    "bufferViews" : [
        {
            "buffer" : 0,
            "byteLength" : 19536,
            "byteOffset" : 0
        },
        {
            "buffer" : 0,
            "byteLength" : 19536,
            "byteOffset" : 19536
        },
        {
            "buffer" : 0,
            "byteLength" : 13024,
            "byteOffset" : 39072
        },
        {
            "buffer" : 0,
            "byteLength" : 14724,
            "byteOffset" : 52096
        },
        {
            "buffer" : 0,
            "byteLength" : 464671,
            "byteOffset" : 66820
        },
        {
            "buffer" : 0,
            "byteLength" : 21624,
            "byteOffset" : 531492
        },
        {
            "buffer" : 0,
            "byteLength" : 21624,
            "byteOffset" : 553116
        },
        {
            "buffer" : 0,
            "byteLength" : 14416,
            "byteOffset" : 574740
        },
        {
            "buffer" : 0,
            "byteLength" : 9720,
            "byteOffset" : 589156
        },
        {
            "buffer" : 0,
            "byteLength" : 18418,
            "byteOffset" : 598876
        },
        {
            "buffer" : 0,
            "byteLength" : 19536,
            "byteOffset" : 617296
        },
        {
            "buffer" : 0,
            "byteLength" : 19536,
            "byteOffset" : 636832
        },
        {
            "buffer" : 0,
            "byteLength" : 13024,
            "byteOffset" : 656368
        },
        {
            "buffer" : 0,
            "byteLength" : 14724,
            "byteOffset" : 669392
        }
    ],
    "samplers" : [
        {
            "magFilter" : 9729,
            "minFilter" : 9987
        }
    ],
    "buffers" : [
        {
            "byteLength" : 684116,
            "uri" : "data:application/octet-stream;base64,"
        }
    ]
}
