{
    "asset" : {
        "generator" : "Khronos glTF Blender I/O v1.7.33",
        "version" : "2.0"
    },
    "scene" : 0,
    "scenes" : [
        {
            "name" : "Scene",
            "nodes" : [
                0
            ]
        }
    ],
    "nodes" : [
        {
            "mesh" : 0,
            "name" : "Layer_0",
            "rotation" : [
                -0.48522713780403137,
                -0.5295934081077576,
                0.4093838930130005,
                -0.5625746846199036
            ],
            "scale" : [
                0.013354912400245667,
                0.013354908674955368,
                0.013354906812310219
            ],
            "translation" : [
                0.06102466583251953,
                -0.025679707527160645,
                4.474773406982422
            ]
        }
    ],
    "materials" : [
        {
            "doubleSided" : true,
            "name" : "Layer_0_Front_Inflation_Material.001",
            "pbrMetallicRoughness" : {
                "baseColorTexture" : {
                    "index" : 0
                },
                "metallicFactor" : 0,
                "roughnessFactor" : 0.5
            }
        },
        {
            "doubleSided" : true,
            "name" : "Layer_0_Extrusion_Material.001",
            "pbrMetallicRoughness" : {
                "baseColorTexture" : {
                    "index" : 1
                },
                "metallicFactor" : 0,
                "roughnessFactor" : 0.5
            }
        },
        {
            "doubleSided" : true,
            "name" : "Layer_0_Back_Inflation_Material.001",
            "pbrMetallicRoughness" : {
                "baseColorTexture" : {
                    "index" : 2
                },
                "metallicFactor" : 0,
                "roughnessFactor" : 0.5
            }
        }
    ],
    "meshes" : [
        {
            "name" : "Layer_0.001",
            "primitives" : [
                {
                    "attributes" : {
                        "POSITION" : 0,
                        "NORMAL" : 1,
                        "TEXCOORD_0" : 2
                    },
                    "indices" : 3,
                    "material" : 0
                },
                {
                    "attributes" : {
                        "POSITION" : 4,
                        "NORMAL" : 5,
                        "TEXCOORD_0" : 6
                    },
                    "indices" : 7,
                    "material" : 1
                },
                {
                    "attributes" : {
                        "POSITION" : 8,
                        "NORMAL" : 9,
                        "TEXCOORD_0" : 10
                    },
                    "indices" : 11,
                    "material" : 2
                }
            ]
        }
    ],
    "textures" : [
        {
            "sampler" : 0,
            "source" : 0
        },
        {
            "sampler" : 0,
            "source" : 1
        },
        {
            "sampler" : 0,
            "source" : 0
        }
    ],
    "images" : [
        {
            "bufferView" : 4,
            "mimeType" : "image/png",
            "name" : "Layer 0"
        },
        {
            "bufferView" : 9,
            "mimeType" : "image/png",
            "name" : "Layer 0 Extrusion Material - Default Texture"
        }
    ],
    "accessors" : [
        {
            "bufferView" : 0,
            "componentType" : 5126,
            "count" : 1355,
            "max" : [
                612.9970092773438,
                0,
                -7.004000186920166
            ],
            "min" : [
                29.003398895263672,
                0,
                -401.99603271484375
            ],
            "type" : "VEC3"
        },
        {
            "bufferView" : 1,
            "componentType" : 5126,
            "count" : 1355,
            "type" : "VEC3"
        },
        {
            "bufferView" : 2,
            "componentType" : 5126,
            "count" : 1355,
            "type" : "VEC2"
        },
        {
            "bufferView" : 3,
            "componentType" : 5123,
            "count" : 4248,
            "type" : "SCALAR"
        },
        {
            "bufferView" : 5,
            "componentType" : 5126,
            "count" : 1236,
            "max" : [
                612.9970092773438,
                12,
                -7.004000186920166
            ],
            "min" : [
                29.003398895263672,
                0,
                -401.99603271484375
            ],
            "type" : "VEC3"
        },
        {
            "bufferView" : 6,
            "componentType" : 5126,
            "count" : 1236,
            "type" : "VEC3"
        },
        {
            "bufferView" : 7,
            "componentType" : 5126,
            "count" : 1236,
            "type" : "VEC2"
        },
        {
            "bufferView" : 8,
            "componentType" : 5123,
            "count" : 2898,
            "type" : "SCALAR"
        },
        {
            "bufferView" : 10,
            "componentType" : 5126,
            "count" : 1476,
            "max" : [
                612.9970092773438,
                12,
                -7.004000186920166
            ],
            "min" : [
                29.003398895263672,
                12,
                -401.99603271484375
            ],
            "type" : "VEC3"
        },
        {
            "bufferView" : 11,
            "componentType" : 5126,
            "count" : 1476,
            "type" : "VEC3"
        },
        {
            "bufferView" : 12,
            "componentType" : 5126,
            "count" : 1476,
            "type" : "VEC2"
        },
        {
            "bufferView" : 13,
            "componentType" : 5123,
            "count" : 4248,
            "type" : "SCALAR"
        }
    ],
    "bufferViews" : [
        {
            "buffer" : 0,
            "byteLength" : 16260,
            "byteOffset" : 0
        },
        {
            "buffer" : 0,
            "byteLength" : 16260,
            "byteOffset" : 16260
        },
        {
            "buffer" : 0,
            "byteLength" : 10840,
            "byteOffset" : 32520
        },
        {
            "buffer" : 0,
            "byteLength" : 8496,
            "byteOffset" : 43360
        },
        {
            "buffer" : 0,
            "byteLength" : 212718,
            "byteOffset" : 51856
        },
        {
            "buffer" : 0,
            "byteLength" : 14832,
            "byteOffset" : 264576
        },
        {
            "buffer" : 0,
            "byteLength" : 14832,
            "byteOffset" : 279408
        },
        {
            "buffer" : 0,
            "byteLength" : 9888,
            "byteOffset" : 294240
        },
        {
            "buffer" : 0,
            "byteLength" : 5796,
            "byteOffset" : 304128
        },
        {
            "buffer" : 0,
            "byteLength" : 18418,
            "byteOffset" : 309924
        },
        {
            "buffer" : 0,
            "byteLength" : 17712,
            "byteOffset" : 328344
        },
        {
            "buffer" : 0,
            "byteLength" : 17712,
            "byteOffset" : 346056
        },
        {
            "buffer" : 0,
            "byteLength" : 11808,
            "byteOffset" : 363768
        },
        {
            "buffer" : 0,
            "byteLength" : 8496,
            "byteOffset" : 375576
        }
    ],
    "samplers" : [
        {
            "magFilter" : 9729,
            "minFilter" : 9987
        }
    ],
    "buffers" : [
        {
            "byteLength" : 384072,
            "uri" : "data:application/octet-stream;base64,"
        }
    ]
}
