{
    "asset" : {
        "generator" : "Khronos glTF Blender I/O v1.7.33",
        "version" : "2.0"
    },
    "scene" : 0,
    "scenes" : [
        {
            "name" : "Scene",
            "nodes" : [
                0
            ]
        }
    ],
    "nodes" : [
        {
            "mesh" : 0,
            "name" : "path5",
            "rotation" : [
                0.49091625213623047,
                -0.505179762840271,
                0.4558103680610657,
                0.5440880060195923
            ],
            "scale" : [
                33.448604583740234,
                33.448604583740234,
                33.448604583740234
            ],
            "translation" : [
                0,
                0,
                -2.040226459503174
            ]
        }
    ],
    "materials" : [
        {
            "doubleSided" : true,
            "name" : "SVGMat.006",
            "pbrMetallicRoughness" : {
                "baseColorFactor" : [
                    0.8962693810462952,
                    0.6444796919822693,
                    0.2015562504529953,
                    1
                ],
                "metallicFactor" : 0,
                "roughnessFactor" : 0.4000000059604645
            }
        },
        {
            "doubleSided" : true,
            "name" : "SVGMat.001",
            "pbrMetallicRoughness" : {
                "baseColorFactor" : [
                    0.5394794940948486,
                    0.6104955673217773,
                    0.6583748459815979,
                    1
                ],
                "metallicFactor" : 0,
                "roughnessFactor" : 0.4000000059604645
            }
        },
        {
            "doubleSided" : true,
            "name" : "SVGMat.002",
            "pbrMetallicRoughness" : {
                "baseColorFactor" : [
                    0.5394794940948486,
                    0.024157632142305374,
                    0.0012141079641878605,
                    1
                ],
                "metallicFactor" : 0,
                "roughnessFactor" : 0.4000000059604645
            }
        },
        {
            "doubleSided" : true,
            "name" : "SVGMat.003",
            "pbrMetallicRoughness" : {
                "baseColorFactor" : [
                    0.6795424818992615,
                    0.16513219475746155,
                    0.004024717025458813,
                    1
                ],
                "metallicFactor" : 0,
                "roughnessFactor" : 0.4000000059604645
            }
        },
        {
            "doubleSided" : true,
            "name" : "SVGMat.004",
            "pbrMetallicRoughness" : {
                "baseColorFactor" : [
                    0.47353148460388184,
                    0.37123769521713257,
                    0.2541520893573761,
                    1
                ],
                "metallicFactor" : 0,
                "roughnessFactor" : 0.4000000059604645
            }
        },
        {
            "doubleSided" : true,
            "name" : "SVGMat.005",
            "pbrMetallicRoughness" : {
                "baseColorFactor" : [
                    0.023153366521000862,
                    0.05951123684644699,
                    0.045186202973127365,
                    1
                ],
                "metallicFactor" : 0,
                "roughnessFactor" : 0.4000000059604645
            }
        }
    ],
    "meshes" : [
        {
            "name" : "path5",
            "primitives" : [
                {
                    "attributes" : {
                        "POSITION" : 0,
                        "NORMAL" : 1,
                        "TEXCOORD_0" : 2
                    },
                    "indices" : 3,
                    "material" : 0
                },
                {
                    "attributes" : {
                        "POSITION" : 4,
                        "NORMAL" : 5,
                        "TEXCOORD_0" : 6
                    },
                    "indices" : 7,
                    "material" : 1
                },
                {
                    "attributes" : {
                        "POSITION" : 8,
                        "NORMAL" : 9,
                        "TEXCOORD_0" : 10
                    },
                    "indices" : 11,
                    "material" : 2
                },
                {
                    "attributes" : {
                        "POSITION" : 12,
                        "NORMAL" : 13,
                        "TEXCOORD_0" : 14
                    },
                    "indices" : 15,
                    "material" : 3
                },
                {
                    "attributes" : {
                        "POSITION" : 16,
                        "NORMAL" : 17,
                        "TEXCOORD_0" : 18
                    },
                    "indices" : 19,
                    "material" : 4
                },
                {
                    "attributes" : {
                        "POSITION" : 20,
                        "NORMAL" : 21,
                        "TEXCOORD_0" : 22
                    },
                    "indices" : 23,
                    "material" : 5
                }
            ]
        }
    ],
    "accessors" : [
        {
            "bufferView" : 0,
            "componentType" : 5126,
            "count" : 11107,
            "max" : [
                0.07233802229166031,
                0,
                -0.01781117543578148
            ],
            "min" : [
                0.010026149451732635,
                0,
                -0.06172637268900871
            ],
            "type" : "VEC3"
        },
        {
            "bufferView" : 1,
            "componentType" : 5126,
            "count" : 11107,
            "type" : "VEC3"
        },
        {
            "bufferView" : 2,
            "componentType" : 5126,
            "count" : 11107,
            "type" : "VEC2"
        },
        {
            "bufferView" : 3,
            "componentType" : 5123,
            "count" : 25110,
            "type" : "SCALAR"
        },
        {
            "bufferView" : 4,
            "componentType" : 5126,
            "count" : 15357,
            "max" : [
                0.10288621485233307,
                0,
                -0.014988534152507782
            ],
            "min" : [
                0.01002681814134121,
                0,
                -0.06261376291513443
            ],
            "type" : "VEC3"
        },
        {
            "bufferView" : 5,
            "componentType" : 5126,
            "count" : 15357,
            "type" : "VEC3"
        },
        {
            "bufferView" : 6,
            "componentType" : 5126,
            "count" : 15357,
            "type" : "VEC2"
        },
        {
            "bufferView" : 7,
            "componentType" : 5123,
            "count" : 34548,
            "type" : "SCALAR"
        },
        {
            "bufferView" : 8,
            "componentType" : 5126,
            "count" : 11950,
            "max" : [
                0.06882387399673462,
                0,
                -0.01648261770606041
            ],
            "min" : [
                0.012610828503966331,
                0,
                -0.056413039565086365
            ],
            "type" : "VEC3"
        },
        {
            "bufferView" : 9,
            "componentType" : 5126,
            "count" : 11950,
            "type" : "VEC3"
        },
        {
            "bufferView" : 10,
            "componentType" : 5126,
            "count" : 11950,
            "type" : "VEC2"
        },
        {
            "bufferView" : 11,
            "componentType" : 5123,
            "count" : 27246,
            "type" : "SCALAR"
        },
        {
            "bufferView" : 12,
            "componentType" : 5126,
            "count" : 17312,
            "max" : [
                0.07023530453443527,
                0,
                -0.015516471117734909
            ],
            "min" : [
                0.010526100173592567,
                0,
                -0.059470370411872864
            ],
            "type" : "VEC3"
        },
        {
            "bufferView" : 13,
            "componentType" : 5126,
            "count" : 17312,
            "type" : "VEC3"
        },
        {
            "bufferView" : 14,
            "componentType" : 5126,
            "count" : 17312,
            "type" : "VEC2"
        },
        {
            "bufferView" : 15,
            "componentType" : 5123,
            "count" : 39234,
            "type" : "SCALAR"
        },
        {
            "bufferView" : 16,
            "componentType" : 5126,
            "count" : 18807,
            "max" : [
                0.10185997933149338,
                0,
                -0.013368061743676662
            ],
            "min" : [
                0.015007473528385162,
                0,
                -0.06187065690755844
            ],
            "type" : "VEC3"
        },
        {
            "bufferView" : 17,
            "componentType" : 5126,
            "count" : 18807,
            "type" : "VEC3"
        },
        {
            "bufferView" : 18,
            "componentType" : 5126,
            "count" : 18807,
            "type" : "VEC2"
        },
        {
            "bufferView" : 19,
            "componentType" : 5123,
            "count" : 42612,
            "type" : "SCALAR"
        },
        {
            "bufferView" : 20,
            "componentType" : 5126,
            "count" : 6674,
            "max" : [
                0.10143612325191498,
                0,
                -0.013719894923269749
            ],
            "min" : [
                0.020545506849884987,
                0,
                -0.038700658828020096
            ],
            "type" : "VEC3"
        },
        {
            "bufferView" : 21,
            "componentType" : 5126,
            "count" : 6674,
            "type" : "VEC3"
        },
        {
            "bufferView" : 22,
            "componentType" : 5126,
            "count" : 6674,
            "type" : "VEC2"
        },
        {
            "bufferView" : 23,
            "componentType" : 5123,
            "count" : 15129,
            "type" : "SCALAR"
        }
    ],
    "bufferViews" : [
        {
            "buffer" : 0,
            "byteLength" : 133284,
            "byteOffset" : 0
        },
        {
            "buffer" : 0,
            "byteLength" : 133284,
            "byteOffset" : 133284
        },
        {
            "buffer" : 0,
            "byteLength" : 88856,
            "byteOffset" : 266568
        },
        {
            "buffer" : 0,
            "byteLength" : 50220,
            "byteOffset" : 355424
        },
        {
            "buffer" : 0,
            "byteLength" : 184284,
            "byteOffset" : 405644
        },
        {
            "buffer" : 0,
            "byteLength" : 184284,
            "byteOffset" : 589928
        },
        {
            "buffer" : 0,
            "byteLength" : 122856,
            "byteOffset" : 774212
        },
        {
            "buffer" : 0,
            "byteLength" : 69096,
            "byteOffset" : 897068
        },
        {
            "buffer" : 0,
            "byteLength" : 143400,
            "byteOffset" : 966164
        },
        {
            "buffer" : 0,
            "byteLength" : 143400,
            "byteOffset" : 1109564
        },
        {
            "buffer" : 0,
            "byteLength" : 95600,
            "byteOffset" : 1252964
        },
        {
            "buffer" : 0,
            "byteLength" : 54492,
            "byteOffset" : 1348564
        },
        {
            "buffer" : 0,
            "byteLength" : 207744,
            "byteOffset" : 1403056
        },
        {
            "buffer" : 0,
            "byteLength" : 207744,
            "byteOffset" : 1610800
        },
        {
            "buffer" : 0,
            "byteLength" : 138496,
            "byteOffset" : 1818544
        },
        {
            "buffer" : 0,
            "byteLength" : 78468,
            "byteOffset" : 1957040
        },
        {
            "buffer" : 0,
            "byteLength" : 225684,
            "byteOffset" : 2035508
        },
        {
            "buffer" : 0,
            "byteLength" : 225684,
            "byteOffset" : 2261192
        },
        {
            "buffer" : 0,
            "byteLength" : 150456,
            "byteOffset" : 2486876
        },
        {
            "buffer" : 0,
            "byteLength" : 85224,
            "byteOffset" : 2637332
        },
        {
            "buffer" : 0,
            "byteLength" : 80088,
            "byteOffset" : 2722556
        },
        {
            "buffer" : 0,
            "byteLength" : 80088,
            "byteOffset" : 2802644
        },
        {
            "buffer" : 0,
            "byteLength" : 53392,
            "byteOffset" : 2882732
        },
        {
            "buffer" : 0,
            "byteLength" : 30258,
            "byteOffset" : 2936124
        }
    ],
    "buffers" : [
        {
            "byteLength" : 2966384,
            "uri" : "data:application/octet-stream;base64,"
        }
    ]
}
