{
    "asset" : {
        "generator" : "Khronos glTF Blender I/O v1.7.33",
        "version" : "2.0"
    },
    "scene" : 0,
    "scenes" : [
        {
            "name" : "Scene",
            "nodes" : [
                0
            ]
        }
    ],
    "nodes" : [
        {
            "mesh" : 0,
            "name" : "Layer_0",
            "rotation" : [
                0.3863655924797058,
                0.5951871871948242,
                -0.41057658195495605,
                0.5726261138916016
            ],
            "scale" : [
                0.005956656765192747,
                0.005956667475402355,
                0.0059566679410636425
            ],
            "translation" : [
                0.3938053846359253,
                0.024437785148620605,
                1.3190958499908447
            ]
        }
    ],
    "materials" : [
        {
            "doubleSided" : true,
            "name" : "Layer_0_Front_Inflation_Material.001",
            "pbrMetallicRoughness" : {
                "baseColorTexture" : {
                    "index" : 0
                },
                "metallicFactor" : 0,
                "roughnessFactor" : 0.5
            }
        },
        {
            "doubleSided" : true,
            "name" : "Layer_0_Extrusion_Material.001",
            "pbrMetallicRoughness" : {
                "baseColorTexture" : {
                    "index" : 1
                },
                "metallicFactor" : 0,
                "roughnessFactor" : 0.5
            }
        },
        {
            "doubleSided" : true,
            "name" : "Layer_0_Back_Inflation_Material.001",
            "pbrMetallicRoughness" : {
                "baseColorTexture" : {
                    "index" : 2
                },
                "metallicFactor" : 0,
                "roughnessFactor" : 0.5
            }
        }
    ],
    "meshes" : [
        {
            "name" : "Layer_0.001",
            "primitives" : [
                {
                    "attributes" : {
                        "POSITION" : 0,
                        "NORMAL" : 1,
                        "TEXCOORD_0" : 2
                    },
                    "indices" : 3,
                    "material" : 0
                },
                {
                    "attributes" : {
                        "POSITION" : 4,
                        "NORMAL" : 5,
                        "TEXCOORD_0" : 6
                    },
                    "indices" : 7,
                    "material" : 1
                },
                {
                    "attributes" : {
                        "POSITION" : 8,
                        "NORMAL" : 9,
                        "TEXCOORD_0" : 10
                    },
                    "indices" : 11,
                    "material" : 2
                }
            ]
        }
    ],
    "textures" : [
        {
            "sampler" : 0,
            "source" : 0
        },
        {
            "sampler" : 0,
            "source" : 1
        },
        {
            "sampler" : 0,
            "source" : 0
        }
    ],
    "images" : [
        {
            "bufferView" : 4,
            "mimeType" : "image/png",
            "name" : "Layer 00000"
        },
        {
            "bufferView" : 9,
            "mimeType" : "image/png",
            "name" : "Layer 0 Extrusion Material - Default Texture0000"
        }
    ],
    "accessors" : [
        {
            "bufferView" : 0,
            "componentType" : 5126,
            "count" : 205,
            "max" : [
                540.9970092773438,
                0,
                -8.004000663757324
            ],
            "min" : [
                31.19849967956543,
                0,
                -416.99700927734375
            ],
            "type" : "VEC3"
        },
        {
            "bufferView" : 1,
            "componentType" : 5126,
            "count" : 205,
            "type" : "VEC3"
        },
        {
            "bufferView" : 2,
            "componentType" : 5126,
            "count" : 205,
            "type" : "VEC2"
        },
        {
            "bufferView" : 3,
            "componentType" : 5123,
            "count" : 612,
            "type" : "SCALAR"
        },
        {
            "bufferView" : 5,
            "componentType" : 5126,
            "count" : 166,
            "max" : [
                540.9970092773438,
                0,
                -8.004000663757324
            ],
            "min" : [
                31.19849967956543,
                -23,
                -416.99700927734375
            ],
            "type" : "VEC3"
        },
        {
            "bufferView" : 6,
            "componentType" : 5126,
            "count" : 166,
            "type" : "VEC3"
        },
        {
            "bufferView" : 7,
            "componentType" : 5126,
            "count" : 166,
            "type" : "VEC2"
        },
        {
            "bufferView" : 8,
            "componentType" : 5123,
            "count" : 408,
            "type" : "SCALAR"
        },
        {
            "bufferView" : 10,
            "componentType" : 5126,
            "count" : 426,
            "max" : [
                540.9970092773438,
                -23,
                -8.004000663757324
            ],
            "min" : [
                31.19849967956543,
                -23,
                -416.99700927734375
            ],
            "type" : "VEC3"
        },
        {
            "bufferView" : 11,
            "componentType" : 5126,
            "count" : 426,
            "type" : "VEC3"
        },
        {
            "bufferView" : 12,
            "componentType" : 5126,
            "count" : 426,
            "type" : "VEC2"
        },
        {
            "bufferView" : 13,
            "componentType" : 5123,
            "count" : 612,
            "type" : "SCALAR"
        }
    ],
    "bufferViews" : [
        {
            "buffer" : 0,
            "byteLength" : 2460,
            "byteOffset" : 0
        },
        {
            "buffer" : 0,
            "byteLength" : 2460,
            "byteOffset" : 2460
        },
        {
            "buffer" : 0,
            "byteLength" : 1640,
            "byteOffset" : 4920
        },
        {
            "buffer" : 0,
            "byteLength" : 1224,
            "byteOffset" : 6560
        },
        {
            "buffer" : 0,
            "byteLength" : 280109,
            "byteOffset" : 7784
        },
        {
            "buffer" : 0,
            "byteLength" : 1992,
            "byteOffset" : 287896
        },
        {
            "buffer" : 0,
            "byteLength" : 1992,
            "byteOffset" : 289888
        },
        {
            "buffer" : 0,
            "byteLength" : 1328,
            "byteOffset" : 291880
        },
        {
            "buffer" : 0,
            "byteLength" : 816,
            "byteOffset" : 293208
        },
        {
            "buffer" : 0,
            "byteLength" : 18418,
            "byteOffset" : 294024
        },
        {
            "buffer" : 0,
            "byteLength" : 5112,
            "byteOffset" : 312444
        },
        {
            "buffer" : 0,
            "byteLength" : 5112,
            "byteOffset" : 317556
        },
        {
            "buffer" : 0,
            "byteLength" : 3408,
            "byteOffset" : 322668
        },
        {
            "buffer" : 0,
            "byteLength" : 1224,
            "byteOffset" : 326076
        }
    ],
    "samplers" : [
        {
            "magFilter" : 9729,
            "minFilter" : 9987
        }
    ],
    "buffers" : [
        {
            "byteLength" : 327300,
            "uri" : "data:application/octet-stream;base64,"
        }
    ]
}
