{
    "asset" : {
        "generator" : "Khronos glTF Blender I/O v1.7.33",
        "version" : "2.0"
    },
    "scene" : 0,
    "scenes" : [
        {
            "name" : "Scene",
            "nodes" : [
                0
            ]
        }
    ],
    "nodes" : [
        {
            "mesh" : 0,
            "name" : "Layer_0",
            "rotation" : [
                0.3774395287036896,
                0.5639972686767578,
                -0.4394645094871521,
                0.5884873867034912
            ],
            "scale" : [
                0.04577994346618652,
                0.045779939740896225,
                0.04577992111444473
            ],
            "translation" : [
                1.0661907196044922,
                3.1733436584472656,
                13.15316104888916
            ]
        }
    ],
    "materials" : [
        {
            "doubleSided" : true,
            "name" : "Layer_0_Front_Inflation_Material.010",
            "pbrMetallicRoughness" : {
                "baseColorTexture" : {
                    "index" : 0
                },
                "metallicFactor" : 0,
                "roughnessFactor" : 0.5
            }
        },
        {
            "doubleSided" : true,
            "name" : "Layer_0_Extrusion_Material.010",
            "pbrMetallicRoughness" : {
                "baseColorTexture" : {
                    "index" : 1
                },
                "metallicFactor" : 0,
                "roughnessFactor" : 0.5
            }
        },
        {
            "doubleSided" : true,
            "name" : "Layer_0_Back_Inflation_Material.010",
            "pbrMetallicRoughness" : {
                "baseColorTexture" : {
                    "index" : 2
                },
                "metallicFactor" : 0,
                "roughnessFactor" : 0.5
            }
        }
    ],
    "meshes" : [
        {
            "name" : "Layer_0.010",
            "primitives" : [
                {
                    "attributes" : {
                        "POSITION" : 0,
                        "NORMAL" : 1,
                        "TEXCOORD_0" : 2
                    },
                    "indices" : 3,
                    "material" : 0
                },
                {
                    "attributes" : {
                        "POSITION" : 4,
                        "NORMAL" : 5,
                        "TEXCOORD_0" : 6
                    },
                    "indices" : 7,
                    "material" : 1
                },
                {
                    "attributes" : {
                        "POSITION" : 8,
                        "NORMAL" : 9,
                        "TEXCOORD_0" : 10
                    },
                    "indices" : 11,
                    "material" : 2
                }
            ]
        }
    ],
    "textures" : [
        {
            "sampler" : 0,
            "source" : 0
        },
        {
            "sampler" : 0,
            "source" : 1
        },
        {
            "sampler" : 0,
            "source" : 0
        }
    ],
    "images" : [
        {
            "bufferView" : 4,
            "mimeType" : "image/png",
            "name" : "Layer 00000"
        },
        {
            "bufferView" : 9,
            "mimeType" : "image/png",
            "name" : "Layer 0 Extrusion Material - Default Texture0000"
        }
    ],
    "accessors" : [
        {
            "bufferView" : 0,
            "componentType" : 5126,
            "count" : 967,
            "max" : [
                633.9970092773438,
                0,
                -0.002409999957308173
            ],
            "min" : [
                0.002699999837204814,
                0,
                -392.99700927734375
            ],
            "type" : "VEC3"
        },
        {
            "bufferView" : 1,
            "componentType" : 5126,
            "count" : 967,
            "type" : "VEC3"
        },
        {
            "bufferView" : 2,
            "componentType" : 5126,
            "count" : 967,
            "type" : "VEC2"
        },
        {
            "bufferView" : 3,
            "componentType" : 5123,
            "count" : 3006,
            "type" : "SCALAR"
        },
        {
            "bufferView" : 5,
            "componentType" : 5126,
            "count" : 880,
            "max" : [
                633.9970092773438,
                23,
                -0.002409999957308173
            ],
            "min" : [
                0.002699999837204814,
                0,
                -392.99700927734375
            ],
            "type" : "VEC3"
        },
        {
            "bufferView" : 6,
            "componentType" : 5126,
            "count" : 880,
            "type" : "VEC3"
        },
        {
            "bufferView" : 7,
            "componentType" : 5126,
            "count" : 880,
            "type" : "VEC2"
        },
        {
            "bufferView" : 8,
            "componentType" : 5123,
            "count" : 1956,
            "type" : "SCALAR"
        },
        {
            "bufferView" : 10,
            "componentType" : 5126,
            "count" : 1935,
            "max" : [
                633.9970092773438,
                23,
                -0.002409999957308173
            ],
            "min" : [
                0.002699999837204814,
                23,
                -392.99700927734375
            ],
            "type" : "VEC3"
        },
        {
            "bufferView" : 11,
            "componentType" : 5126,
            "count" : 1935,
            "type" : "VEC3"
        },
        {
            "bufferView" : 12,
            "componentType" : 5126,
            "count" : 1935,
            "type" : "VEC2"
        },
        {
            "bufferView" : 13,
            "componentType" : 5123,
            "count" : 3006,
            "type" : "SCALAR"
        }
    ],
    "bufferViews" : [
        {
            "buffer" : 0,
            "byteLength" : 11604,
            "byteOffset" : 0
        },
        {
            "buffer" : 0,
            "byteLength" : 11604,
            "byteOffset" : 11604
        },
        {
            "buffer" : 0,
            "byteLength" : 7736,
            "byteOffset" : 23208
        },
        {
            "buffer" : 0,
            "byteLength" : 6012,
            "byteOffset" : 30944
        },
        {
            "buffer" : 0,
            "byteLength" : 318522,
            "byteOffset" : 36956
        },
        {
            "buffer" : 0,
            "byteLength" : 10560,
            "byteOffset" : 355480
        },
        {
            "buffer" : 0,
            "byteLength" : 10560,
            "byteOffset" : 366040
        },
        {
            "buffer" : 0,
            "byteLength" : 7040,
            "byteOffset" : 376600
        },
        {
            "buffer" : 0,
            "byteLength" : 3912,
            "byteOffset" : 383640
        },
        {
            "buffer" : 0,
            "byteLength" : 18418,
            "byteOffset" : 387552
        },
        {
            "buffer" : 0,
            "byteLength" : 23220,
            "byteOffset" : 405972
        },
        {
            "buffer" : 0,
            "byteLength" : 23220,
            "byteOffset" : 429192
        },
        {
            "buffer" : 0,
            "byteLength" : 15480,
            "byteOffset" : 452412
        },
        {
            "buffer" : 0,
            "byteLength" : 6012,
            "byteOffset" : 467892
        }
    ],
    "samplers" : [
        {
            "magFilter" : 9729,
            "minFilter" : 9987
        }
    ],
    "buffers" : [
        {
            "byteLength" : 473904,
            "uri" : "data:application/octet-stream;base64,"
        }
    ]
}
